FILE "Weltorv Estleia (Japan).bin" BINARY
  TRACK 01 MODE2/2352
    INDEX 01 00:00:00
  TRACK 02 AUDIO
    INDEX 00 18:33:65
    INDEX 01 18:35:65
  TRACK 03 AUDIO
    INDEX 00 20:20:68
    INDEX 01 20:22:68
  TRACK 04 AUDIO
    INDEX 00 21:37:19
    INDEX 01 21:39:19
  TRACK 05 AUDIO
    INDEX 00 24:43:53
    INDEX 01 24:45:53
  TRACK 06 AUDIO
    INDEX 00 26:19:12
    INDEX 01 26:21:12
